<?xml version="1.0" encoding="UTF-8"?>
<svg width="1200pt" height="1200pt" version="1.1" viewBox="0 0 1200 1200" xmlns="http://www.w3.org/2000/svg">
 <path d="m602.59 72.613c-106.3 7.6562-205.79 64.207-284.03 161.15-97.793 20.832-169.65 76.957-191.76 149.67-22.109 71.008 9.7773 152.22 95.242 214.72-5.9531 24.234-6.3789 48.473-0.85156 72.707-34.441 18.285-56.977 46.773-66.332 77.812-11.055 36.141-5.9531 74.41 9.7812 105.88 15.309 31.039 42.094 56.977 77.387 62.93 29.34 4.6758 61.652-6.8047 90.992-33.164 27.211 26.789 58.676 56.125 94.395 79.086-22.535 28.062-24.66 55.699-22.109 90.566 0 12.758 6.8047 19.984 11.906 24.66 18.707 15.309 44.219 22.961 64.203 28.488 37.418 9.7812 85.465 17.859 133.94 19.984 48.898 2.5508 97.797-0.42578 138.19-15.309 37.418-14.883 63.781-38.691 71.434-76.109l40.395-16.156c54.852 18.707 103.75 16.156 140.32-2.125 38.691-19.984 62.93-55.277 71.008-93.969 8.5039-38.691 0.85156-80.789-25.086-113.53-22.961-29.34-62.078-48.898-111.4-52.723-71.008-145.84-159.02-240.24-325.7-301.89 134.79-5.9531 202.39-11.059 295.09-74.836-45.07-68.457-121.61-117.36-187.09-136.49 47.199-36.566 76.961-71.008 102.05-119.48-62.93-29.766-146.69-56.551-221.95-51.875zm152.65 73.984c-49.324 59.953-109.7 88.016-177.31 121.61 95.242 9.7812 204.95 37.844 261.5 99.922-126.71 57.402-247.04 37.418-361.84 27.641v68.457c260.22 62.93 356.32 159.02 432 339.31 44.219 0 92.27 11.906 104.17 36.141 16.156 20.41 21.684 48.047 16.156 73.559s-20.836 48.473-45.922 61.227c-49.746 14.031-81.637 8.5039-119.91-5.9531-31.039 12.332-55.277 21.684-83.766 33.164 1.6992 34.441-15.73 54.852-43.371 65.055-29.766 11.055-74.41 14.457-119.48 12.332-44.645-2.125-90.566-9.7812-123.73-18.707-13.605-3.8281-28.488-8.9297-40.395-14.883-0.42578-11.055-2.125-21.684-0.85156-30.613 11.055-28.488 24.234-34.867 48.898-52.723 25.512-6.3789 58.254-2.5508 87.164-2.5508 16.156 0 28.488-19.984 21.262-34.441-33.59-67.18-33.59-121.61-16.156-150.09 8.9297-14.031 21.262-23.387 40.395-27.637 19.559-4.2539 45.922-2.9766 79.086 7.6523 11.906 4.6758 27.211-2.5508 31.039-14.457 4.2539-12.332-3.8281-27.211-16.156-30.613-34.867-11.055-71.008-16.582-104.17-9.3555-30.613 7.2266-55.699 24.66-71.008 49.324-25.512 41.668-23.812 98.219-0.42578 160.3-28.914-1.6992-62.93-2.5508-93.969 16.582-49.746-34.016-87.164-71.008-127.56-110.98-19.984 24.234-49.324 58.676-80.789 54.426-16.152-2.9805-32.734-16.59-42.938-37.422-10.207-20.836-13.184-47.625-6.3789-70.582 20.832-40.395 39.969-49.324 77.387-63.781-17.434-40.82-12.332-88.016-1.2773-119.48-63.355-41.668-122.46-116.5-104.6-181.56 37.418-86.316 108-107.15 173.48-120.76 69.73-80.785 170.5-150.52 259.37-158.17 51.445-2.9766 109.7 11.48 150.09 28.062zm-466.87 192.19c-19.984 0-36.141 16.156-36.141 35.715 0 19.984 16.156 36.141 36.141 36.141 19.984 0 36.141-16.156 36.141-36.141 0-19.559-16.156-35.715-36.141-35.715z"/>
</svg>
