<?xml version="1.0" encoding="UTF-8"?>
<svg width="700pt" height="700pt" version="1.1" viewBox="90 30 510 500" xmlns="http://www.w3.org/2000/svg">
  <path d="m351.02 28.242c-50.664 3.8203-98.168 30.613-135.21 75.871-46.348 10.402-81.133 37.188-92.129 73.066-10.648 34.742 4.8789 74.156 43.785 104.08-1.875 9.5391-1.8828 19.059-0.35156 28.562-15.492 9.3867-25.887 23.113-30.301 37.848-5.5273 18.449-3.0742 37.598 4.7305 53.441 7.8008 15.848 21.648 29.477 40.461 32.59 14.238 2.3555 29.523-2.4023 43.262-13.316 10.66 10.359 21.906 21.172 35.555 30.664-8.0977 12.738-8.8281 25.926-7.3555 40.828 0 8.3906 4.4453 13.012 7.5312 15.77 28.387 17.973 66.648 22.473 95.98 24.004 23.203 1.1094 46.684-0.19531 66.73-7.5352 18.312-7.5469 31.215-18.637 36.082-36.621l14.539-5.7812c25.934 8.3359 49.344 7.2578 67.434-1.9258 19.703-10.004 32.121-28.355 36.254-47.836 4.1328-19.477 0.35547-40.773-12.785-57.473-11.383-14.465-29.965-24.02-52.895-26.457-29.195-58.68-65.008-100.31-125.58-129.14 50.266-6.5547 67.082-6.5547 115.6-40.125-26.098-39.324-53.242-56.379-83.371-66.934 21.059-17.27 31.695-33.625 43.262-56.246-47.641-22.676-78.402-28.961-111.22-27.336zm62.176 42.402c-26.039 27.812-58.395 40.637-92.305 57.297 45.91 5.5 101.3 13.055 132.06 42.402-60.445 22.688-88.801 13.945-165.69 8.0586v42.578c127.33 30.594 166.57 75.449 203.7 159.62 16.961-0.46094 37.73 2.3398 47.816 14.719 6.4375 8.1836 8.6992 19.16 6.4805 29.613s-8.6328 19.746-18.742 24.883c-23.363 5.3906-34.32 3.1758-53.246-3.8555-15.285 6.2383-31.551 12.469-44.836 17.699 1.3086 15.172-4.0039 24.152-16.289 28.738-12.762 4.668-33.055 6.5859-53.594 5.6055-25.172-2.2891-48.926-4.6484-71.637-13.844-1.5898-11.332 4.3945-18.84 10.332-23.305 13.023-11.965 33.246-7.5742 47.289-7.5352 5.707 0 11.324-3.1172 14.328-7.9727 3.0039-4.8555 3.293-11.277 0.73438-16.383-15.215-30.23-14.316-53.633-7.707-64.305 3.3047-5.3359 7.5312-8.5977 15.238-10.336 7.7031-1.7383 19.102-1.3633 33.805 3.5039 8.5 3.4141 19.367-1.6406 22.234-10.344 2.8672-8.7031-2.8633-19.234-11.727-21.547-17.172-5.4414-35.117-8.1719-51.668-4.5547-15.418 3.4805-28.699 12.82-36.605 25.582-12.117 19.559-12.484 44.688-3.8516 71.84-11.227-0.15625-23.418 0.98828-35.031 7.1836-23.492-16.773-40.66-34.02-60.25-53.617-9.2539 10.117-21.348 30.402-36.43 28.211-5.3516-0.88672-11.746-5.8555-15.938-14.367-4.1914-8.5156-5.3906-19.695-2.6289-28.91 9.3398-18.855 19.266-21.27 37.656-28.035-8.668-22.57-8.2695-40.441-1.0508-61.504-48.867-33.016-54.473-49.836-49.918-80.777 12.262-30.734 34.68-47.559 78.641-52.918 34.504-45.105 73.738-73.141 118.4-73.418 20.559-0.88672 43.875 4.0312 60.426 9.9883zm-208.78 87.434c-9.2891 0-16.812 7.418-16.812 16.645 0 9.2266 7.5273 16.82 16.812 16.82 9.2891 0 16.812-7.5938 16.812-16.82 0-9.2266-7.5273-16.645-16.812-16.645z"/>
</svg>
